<svg width="40" height="40" viewBox="0 0 58 58" fill="none" xmlns="http://www.w3.org/2000/svg">
<g id="fluent-mdl2:game">
<path id="Vector" d="M53.2139 15.6611C54.762 17.2093 55.9421 18.9652 56.7539 20.9287C57.5658 22.8923 57.9811 24.9785 58 27.1875C58 27.8483 57.9811 28.6413 57.9434 29.5664C57.9056 30.4915 57.8301 31.4922 57.7168 32.5684C57.6035 33.6445 57.4242 34.749 57.1787 35.8818C56.9333 37.0146 56.6217 38.138 56.2441 39.252C55.6777 40.8757 55.0169 42.1973 54.2617 43.2168C53.5065 44.2363 52.723 45.0387 51.9111 45.624C51.0993 46.2093 50.278 46.6058 49.4473 46.8135C48.6165 47.0212 47.8424 47.125 47.125 47.125C46.502 47.125 45.9355 47.0212 45.4258 46.8135C44.916 46.6058 44.4251 46.3226 43.9531 45.9639C43.4811 45.6051 43.0469 45.2181 42.6504 44.8027C42.2539 44.3874 41.848 43.9342 41.4326 43.4434C41.0361 42.9902 40.6491 42.556 40.2715 42.1406C39.8939 41.7253 39.488 41.3571 39.0537 41.0361C38.6195 40.7152 38.1852 40.4414 37.751 40.2148C37.3167 39.9883 36.807 39.875 36.2217 39.875H21.7783C21.2308 39.8939 20.7305 40.0072 20.2773 40.2148C19.8242 40.4225 19.3805 40.6868 18.9463 41.0078C18.512 41.3288 18.1156 41.7064 17.7568 42.1406C17.3981 42.5749 17.0016 43.0091 16.5674 43.4434C16.1709 43.8965 15.7744 44.3402 15.3779 44.7744C14.9814 45.2087 14.5472 45.6051 14.0752 45.9639C13.6032 46.3226 13.1123 46.5964 12.6025 46.7852C12.0928 46.974 11.5169 47.0872 10.875 47.125C10.1576 47.125 9.38346 47.0212 8.55273 46.8135C7.72201 46.6058 6.90072 46.2188 6.08887 45.6523C5.27702 45.0859 4.49349 44.2835 3.73828 43.2451C2.98307 42.2067 2.32227 40.8757 1.75586 39.252C1.37826 38.1569 1.07617 37.043 0.849609 35.9102C0.623047 34.7773 0.443685 33.6634 0.311523 32.5684C0.179362 31.4733 0.094401 30.4727 0.0566406 29.5664C0.0188802 28.6602 0 27.8672 0 27.1875C0 24.9974 0.405924 22.9206 1.21777 20.957C2.02962 18.9935 3.21908 17.2282 4.78613 15.6611C6.31543 14.113 8.07129 12.9329 10.0537 12.1211C12.0361 11.3092 14.1224 10.8939 16.3125 10.875H41.6875C43.8776 10.875 45.9544 11.2809 47.918 12.0928C49.8815 12.9046 51.6468 14.0941 53.2139 15.6611ZM52.8174 38.0625C53.1761 37.0618 53.4593 36.0234 53.667 34.9473C53.8747 33.8711 54.0257 32.8421 54.1201 31.8604C54.2145 30.8786 54.2806 29.9723 54.3184 29.1416C54.3561 28.3109 54.375 27.6595 54.375 27.1875C54.375 25.4316 54.0446 23.7891 53.3838 22.2598C52.723 20.7305 51.8167 19.39 50.665 18.2383C49.5133 17.0866 48.1729 16.1803 46.6436 15.5195C45.1143 14.8587 43.4622 14.5189 41.6875 14.5H16.3125C14.5566 14.5 12.9141 14.8304 11.3848 15.4912C9.85547 16.152 8.51497 17.0583 7.36328 18.21C6.21159 19.3617 5.30534 20.7021 4.64453 22.2314C3.98372 23.7607 3.64388 25.4128 3.625 27.1875C3.625 27.6784 3.63444 28.3298 3.65332 29.1416C3.6722 29.9535 3.73828 30.8503 3.85156 31.832C3.96484 32.8138 4.12533 33.8522 4.33301 34.9473C4.54069 36.0423 4.82389 37.0807 5.18262 38.0625C5.65462 39.4219 6.17383 40.4697 6.74023 41.2061C7.30664 41.9424 7.85417 42.4805 8.38281 42.8203C8.91146 43.1602 9.40234 43.3584 9.85547 43.415C10.3086 43.4717 10.6484 43.5 10.875 43.5C11.2904 43.5 11.7435 43.2546 12.2344 42.7637C12.7253 42.2728 13.2539 41.7064 13.8203 41.0645C14.2734 40.5358 14.7549 39.9977 15.2646 39.4502C15.7744 38.9027 16.3503 38.3929 16.9922 37.9209C17.6341 37.4489 18.3421 37.0618 19.1162 36.7598C19.8903 36.4577 20.7493 36.2878 21.6934 36.25H36.3066C37.2507 36.2878 38.1097 36.4577 38.8838 36.7598C39.6579 37.0618 40.3564 37.4395 40.9795 37.8926C41.6025 38.3457 42.1784 38.8555 42.707 39.4219C43.2357 39.9883 43.7266 40.5358 44.1797 41.0645C44.7272 41.6875 45.2464 42.2445 45.7373 42.7354C46.2282 43.2262 46.6908 43.4811 47.125 43.5C47.3516 43.5 47.682 43.4717 48.1162 43.415C48.5505 43.3584 49.0413 43.1602 49.5889 42.8203C50.1364 42.4805 50.6934 41.9424 51.2598 41.2061C51.8262 40.4697 52.3454 39.4219 52.8174 38.0625ZM14.5 25.375H18.125V29H14.5V32.625H10.875V29H7.25V25.375H10.875V21.75H14.5V25.375ZM47.125 29C47.6348 29 48.1068 29.0944 48.541 29.2832C48.9753 29.472 49.3529 29.7269 49.6738 30.0479C49.9948 30.3688 50.2591 30.7559 50.4668 31.209C50.6745 31.6621 50.7689 32.1341 50.75 32.625C50.75 33.1348 50.6556 33.6068 50.4668 34.041C50.278 34.4753 50.0231 34.8529 49.7021 35.1738C49.3812 35.4948 48.9941 35.7591 48.541 35.9668C48.0879 36.1745 47.6159 36.2689 47.125 36.25C46.6152 36.25 46.1432 36.1556 45.709 35.9668C45.2747 35.778 44.8971 35.5231 44.5762 35.2021C44.2552 34.8812 43.9909 34.4941 43.7832 34.041C43.5755 33.5879 43.4811 33.1159 43.5 32.625C43.5 32.1152 43.5944 31.6432 43.7832 31.209C43.972 30.7747 44.2269 30.3971 44.5479 30.0762C44.8688 29.7552 45.2559 29.4909 45.709 29.2832C46.1621 29.0755 46.6341 28.9811 47.125 29ZM39.875 21.75C40.3848 21.75 40.8568 21.8444 41.291 22.0332C41.7253 22.222 42.1029 22.4769 42.4238 22.7979C42.7448 23.1188 43.0091 23.5059 43.2168 23.959C43.4245 24.4121 43.5189 24.8841 43.5 25.375C43.5 25.8848 43.4056 26.3568 43.2168 26.791C43.028 27.2253 42.7731 27.6029 42.4521 27.9238C42.1312 28.2448 41.7441 28.5091 41.291 28.7168C40.8379 28.9245 40.3659 29.0189 39.875 29C39.3652 29 38.8932 28.9056 38.459 28.7168C38.0247 28.528 37.6471 28.2731 37.3262 27.9521C37.0052 27.6312 36.7409 27.2441 36.5332 26.791C36.3255 26.3379 36.2311 25.8659 36.25 25.375C36.25 24.8652 36.3444 24.3932 36.5332 23.959C36.722 23.5247 36.9769 23.1471 37.2979 22.8262C37.6188 22.5052 38.0059 22.2409 38.459 22.0332C38.9121 21.8255 39.3841 21.7311 39.875 21.75Z" fill="white"/>
</g>
</svg>
