<svg width="40" height="40" viewBox="0 0 58 58" fill="none" xmlns="http://www.w3.org/2000/svg">
<g id="carbon:cloud-service-management">
<path id="Vector" d="M50.75 30.8125V39.875H7.25V10.875H25.375V7.25H7.25C6.28859 7.25 5.36656 7.63192 4.68674 8.31174C4.00692 8.99156 3.625 9.91359 3.625 10.875V39.875C3.625 40.8364 4.00692 41.7584 4.68674 42.4383C5.36656 43.1181 6.28859 43.5 7.25 43.5H21.75V50.75H14.5V54.375H43.5V50.75H36.25V43.5H50.75C51.7114 43.5 52.6334 43.1181 53.3133 42.4383C53.9931 41.7584 54.375 40.8364 54.375 39.875V30.8125H50.75ZM32.625 50.75H25.375V43.5H32.625V50.75Z" fill="white"/>
<path id="Vector_2" d="M54.375 18.125V14.5H50.5669C50.3332 13.3654 49.8827 12.2866 49.2402 11.3227L51.9408 8.62206L49.3779 6.05919L46.6773 8.75981C45.7134 8.1173 44.6346 7.66682 43.5 7.43306V3.625H39.875V7.43306C38.7404 7.66682 37.6616 8.1173 36.6977 8.75981L33.9971 6.05919L31.4342 8.62206L34.1348 11.3227C33.4923 12.2866 33.0418 13.3654 32.8081 14.5H29V18.125H32.8081C33.0418 19.2596 33.4923 20.3384 34.1348 21.3023L31.4342 24.0029L33.9971 26.5658L36.6977 23.8652C37.6616 24.5077 38.7404 24.9582 39.875 25.1919V29H43.5V25.1919C44.6346 24.9582 45.7134 24.5077 46.6773 23.8652L49.3779 26.5658L51.9408 24.0029L49.2402 21.3023C49.8827 20.3384 50.3332 19.2596 50.5669 18.125H54.375ZM41.6875 21.75C40.6121 21.75 39.5608 21.4311 38.6666 20.8336C37.7724 20.2361 37.0755 19.3869 36.6639 18.3933C36.2524 17.3998 36.1447 16.3065 36.3545 15.2517C36.5643 14.1969 37.0822 13.2281 37.8426 12.4676C38.6031 11.7072 39.5719 11.1893 40.6267 10.9795C41.6815 10.7697 42.7748 10.8774 43.7683 11.2889C44.7619 11.7005 45.6111 12.3974 46.2086 13.2916C46.8061 14.1858 47.125 15.2371 47.125 16.3125C47.1236 17.7542 46.5502 19.1364 45.5308 20.1558C44.5114 21.1752 43.1292 21.7486 41.6875 21.75Z" fill="white"/>
</g>
</svg>
