<svg width="40" height="40" viewBox="0 0 58 58" fill="none" xmlns="http://www.w3.org/2000/svg">
<g id="icon-park-outline:web-page">
<g id="Group">
<path id="Vector" d="M49.5413 9.66797H8.45801C6.45598 9.66797 4.83301 11.2909 4.83301 13.293V44.7096C4.83301 46.7117 6.45598 48.3346 8.45801 48.3346H49.5413C51.5434 48.3346 53.1663 46.7117 53.1663 44.7096V13.293C53.1663 11.2909 51.5434 9.66797 49.5413 9.66797Z" stroke="white" stroke-width="4.83333" stroke-linejoin="round"/>
<path id="Vector_2" d="M4.83301 13.293C4.83301 12.3316 5.21493 11.4095 5.89475 10.7297C6.57457 10.0499 7.4966 9.66797 8.45801 9.66797H49.5413C50.5027 9.66797 51.4248 10.0499 52.1046 10.7297C52.7844 11.4095 53.1663 12.3316 53.1663 13.293V24.168H4.83301V13.293Z" stroke="white" stroke-width="4.83333"/>
<path id="Vector_3" d="M9.66667 16.9173C9.66667 15.5826 10.7486 14.5007 12.0833 14.5007C13.418 14.5007 14.5 15.5826 14.5 16.9173C14.5 18.252 13.418 19.334 12.0833 19.334C10.7486 19.334 9.66667 18.252 9.66667 16.9173Z" fill="white"/>
<path id="Vector_4" d="M16.9167 16.9173C16.9167 15.5826 17.9986 14.5007 19.3333 14.5007C20.668 14.5007 21.75 15.5826 21.75 16.9173C21.75 18.252 20.668 19.334 19.3333 19.334C17.9986 19.334 16.9167 18.252 16.9167 16.9173Z" fill="white"/>
</g>
</g>
</svg>
