<svg width="60" height="60" viewBox="0 0 60 60" fill="none" xmlns="http://www.w3.org/2000/svg">
<g id="fluent-mdl2:amazon-web-services-logo">
<path id="Vector" d="M44.0625 31.4688C44.0625 31.3125 44.0918 31.166 44.1504 31.0293C44.209 30.8926 44.3359 30.8242 44.5312 30.8242C44.6289 30.8242 44.7656 30.8535 44.9414 30.9121C45.1172 30.9707 45.2637 31.0293 45.3809 31.0879C46.1426 31.3809 46.8848 31.6055 47.6074 31.7617C48.3301 31.918 49.1113 32.0059 49.9512 32.0254C50.3613 32.0254 50.8008 31.9961 51.2695 31.9375C51.7383 31.8789 52.168 31.752 52.5586 31.5566C52.9492 31.3613 53.2715 31.0977 53.5254 30.7656C53.7793 30.4336 53.9062 30.0039 53.9062 29.4766C53.9062 28.9492 53.75 28.5195 53.4375 28.1875C53.125 27.8555 52.7051 27.582 52.1777 27.3672C51.6504 27.1523 51.084 26.957 50.4785 26.7812C49.873 26.6055 49.2285 26.4102 48.5449 26.1953C47.8613 25.9805 47.2559 25.7168 46.7285 25.4043C46.2012 25.0918 45.7129 24.6621 45.2637 24.1152C44.9316 23.666 44.6875 23.2168 44.5312 22.7676C44.375 22.3184 44.2871 21.8008 44.2676 21.2148C44.2676 20.3359 44.4629 19.5742 44.8535 18.9297C45.2441 18.2852 45.752 17.7383 46.377 17.2891C47.002 16.8398 47.7051 16.5176 48.4863 16.3223C49.2676 16.127 50.0488 16.0195 50.8301 16C51.1426 16 51.5527 16.0293 52.0605 16.0879C52.5684 16.1465 53.0762 16.2344 53.584 16.3516C54.0918 16.4688 54.5801 16.6152 55.0488 16.791C55.5176 16.9668 55.8398 17.1914 56.0156 17.4648C56.1719 17.6992 56.25 18.002 56.25 18.373V18.7246C56.25 18.8418 56.2402 18.959 56.2207 19.0762C56.2207 19.2324 56.1914 19.3789 56.1328 19.5156C56.0742 19.6523 55.9473 19.7207 55.752 19.7207C55.6152 19.7207 55.4883 19.6914 55.3711 19.6328C55.2539 19.5742 55.127 19.5156 54.9902 19.457C54.4043 19.1836 53.7793 18.9883 53.1152 18.8711C52.4512 18.7539 51.7969 18.6953 51.1523 18.6953C50.7617 18.6953 50.3613 18.7246 49.9512 18.7832C49.541 18.8418 49.1504 18.9492 48.7793 19.1055C48.4082 19.2617 48.125 19.5059 47.9297 19.8379C47.7344 20.1699 47.6172 20.5703 47.5781 21.0391C47.5781 21.6836 47.8125 22.1816 48.2812 22.5332C48.75 22.8848 49.3457 23.1875 50.0684 23.4414C50.791 23.6953 51.5625 23.9297 52.3828 24.1445C53.2031 24.3594 53.9746 24.6719 54.6973 25.082C55.4199 25.4922 56.0156 26 56.4844 26.6055C56.9531 27.2109 57.1973 28.0605 57.2168 29.1543C57.2168 30.1309 57.0117 30.9707 56.6016 31.6738C56.1914 32.377 55.6543 32.9531 54.9902 33.4023C54.3262 33.8516 53.5645 34.1934 52.7051 34.4277C51.8457 34.6621 50.9961 34.7695 50.1562 34.75C49.8438 34.75 49.3848 34.7207 48.7793 34.6621C48.1738 34.6035 47.5586 34.4961 46.9336 34.3398C46.3086 34.1836 45.7227 34.0078 45.1758 33.8125C44.6289 33.6172 44.2969 33.3535 44.1797 33.0215C44.1211 32.9043 44.082 32.7773 44.0625 32.6406C44.043 32.5039 44.0332 32.3574 44.0332 32.2012V31.8203C44.0332 31.7031 44.043 31.5859 44.0625 31.4688ZM18.7793 17.0254C18.7793 16.6934 18.9355 16.5273 19.248 16.5273H21.2109C21.6016 16.5273 21.8652 16.5957 22.002 16.7324C22.1387 16.8691 22.2656 17.123 22.3828 17.4941L25.752 30.707L28.8574 17.4941C28.9551 17.0645 29.1309 16.791 29.3848 16.6738C29.6387 16.5566 29.9316 16.4883 30.2637 16.4688C30.4785 16.4688 30.7031 16.4785 30.9375 16.498C31.1719 16.5176 31.4062 16.5273 31.6406 16.5273C32.0117 16.5273 32.2754 16.5957 32.4316 16.7324C32.5879 16.8691 32.7148 17.123 32.8125 17.4941L35.9473 30.8535L39.4043 17.4941C39.502 17.1621 39.6289 16.918 39.7852 16.7617C39.9414 16.6055 40.2051 16.5273 40.5762 16.5273H42.4219C42.7539 16.5273 42.9199 16.6934 42.9199 17.0254C42.9199 17.1816 42.9004 17.3184 42.8613 17.4355C42.8223 17.5527 42.7832 17.6895 42.7441 17.8457L37.9395 33.2559C37.8027 33.7051 37.6074 33.9883 37.3535 34.1055C37.0996 34.2227 36.8066 34.2812 36.4746 34.2812C36.2598 34.2812 36.0352 34.2715 35.8008 34.252C35.5664 34.2324 35.3125 34.2227 35.0391 34.2227C34.6484 34.2227 34.3848 34.1543 34.248 34.0176C34.1113 33.8809 33.9844 33.6172 33.8672 33.2266L30.791 20.3652L27.7148 33.2266C27.6172 33.6758 27.4414 33.9688 27.1875 34.1055C26.9336 34.2422 26.6309 34.3105 26.2793 34.3105C26.0645 34.3105 25.8398 34.3008 25.6055 34.2812C25.3711 34.2617 25.1074 34.2422 24.8145 34.2227C24.4238 34.2227 24.1602 34.1445 24.0234 33.9883C23.8867 33.832 23.7598 33.5781 23.6426 33.2266L18.9551 17.8164C18.916 17.6992 18.877 17.5723 18.8379 17.4355C18.7988 17.2988 18.7793 17.1621 18.7793 17.0254ZM13.7109 24.3496V22.8848C13.7109 22.123 13.6328 21.4785 13.4766 20.9512C13.3203 20.4238 13.0762 20.0039 12.7441 19.6914C12.4121 19.3789 11.9824 19.1445 11.4551 18.9883C10.9277 18.832 10.2832 18.7637 9.52148 18.7832C8.70117 18.7832 7.96875 18.8613 7.32422 19.0176C6.67969 19.1738 5.97656 19.4082 5.21484 19.7207C5.07812 19.7598 4.91211 19.8184 4.7168 19.8965C4.52148 19.9746 4.3457 20.0234 4.18945 20.043C3.99414 20.043 3.87695 19.9453 3.83789 19.75C3.79883 19.5547 3.76953 19.3398 3.75 19.1055V18.7246C3.75 18.6074 3.75977 18.5098 3.7793 18.4316V18.0801C3.7793 17.9434 3.81836 17.8262 3.89648 17.7285C4.07227 17.4746 4.43359 17.2402 4.98047 17.0254C5.52734 16.8105 6.12305 16.6348 6.76758 16.498C7.41211 16.3613 8.04688 16.2441 8.67188 16.1465C9.29688 16.0488 9.76562 16.0098 10.0781 16.0293C12.3242 16.0293 14.0332 16.5371 15.2051 17.5527C16.377 18.5684 16.9629 20.2383 16.9629 22.5625V29.0371H17.0215C17.0215 29.3105 17.0312 29.6035 17.0508 29.916C17.0703 30.2285 17.1289 30.5215 17.2266 30.7949C17.2656 30.8926 17.3242 31.0293 17.4023 31.2051C17.4805 31.3809 17.5684 31.5762 17.666 31.791C17.7637 32.0059 17.8418 32.1914 17.9004 32.3477C17.959 32.5039 17.998 32.6211 18.0176 32.6992C18.0176 32.8164 17.9297 32.9629 17.7539 33.1387C17.5781 33.3145 17.3633 33.5 17.1094 33.6953C16.8555 33.8906 16.6113 34.0371 16.377 34.1348C16.1426 34.2324 15.9668 34.291 15.8496 34.3105C15.6543 34.3105 15.459 34.2129 15.2637 34.0176C15.0684 33.8223 14.8828 33.5977 14.707 33.3438C14.5312 33.0898 14.375 32.8262 14.2383 32.5527C14.1016 32.2793 13.9941 32.0645 13.916 31.9082C12.373 33.7441 10.4199 34.6621 8.05664 34.6621C7.25586 34.6621 6.52344 34.5449 5.85938 34.3105C5.19531 34.0762 4.60938 33.7344 4.10156 33.2852C3.59375 32.8359 3.22266 32.2891 2.98828 31.6445C2.75391 31 2.61719 30.2578 2.57812 29.418C2.57812 28.4609 2.76367 27.6309 3.13477 26.9277C3.50586 26.2246 3.99414 25.6289 4.59961 25.1406C5.20508 24.6523 5.91797 24.3008 6.73828 24.0859C7.55859 23.8711 8.4082 23.7539 9.28711 23.7344C10.0293 23.7344 10.7617 23.793 11.4844 23.9102C12.207 24.0273 12.9492 24.1738 13.7109 24.3496ZM13.623 27.4258V26.5762C13.0176 26.4199 12.4121 26.3027 11.8066 26.2246C11.2012 26.1465 10.5762 26.1074 9.93164 26.1074C9.4043 26.1074 8.90625 26.1562 8.4375 26.2539C7.96875 26.3516 7.54883 26.5176 7.17773 26.752C6.80664 26.9863 6.51367 27.2988 6.29883 27.6895C6.08398 28.0801 5.97656 28.5879 5.97656 29.2129C5.97656 30.1309 6.21094 30.834 6.67969 31.3223C7.14844 31.8105 7.85156 32.0547 8.78906 32.0547C9.25781 32.0547 9.73633 31.9961 10.2246 31.8789C10.7129 31.7617 11.1719 31.5859 11.6016 31.3516C12.0312 31.1172 12.4121 30.8242 12.7441 30.4727C13.0762 30.1211 13.3105 29.6816 13.4473 29.1543C13.5254 28.8809 13.5742 28.5977 13.5938 28.3047C13.6133 28.0117 13.623 27.7188 13.623 27.4258ZM53.7891 42.8359C54.0234 42.8359 54.2383 42.9043 54.4336 43.041C54.6289 43.1777 54.7266 43.3828 54.7266 43.6562C54.7266 43.8125 54.6777 43.959 54.5801 44.0957C54.4824 44.2324 54.375 44.3496 54.2578 44.4473C52.7148 45.6777 50.9473 46.752 48.9551 47.6699C46.9629 48.5879 44.873 49.3691 42.6855 50.0137C40.498 50.6582 38.3203 51.127 36.1523 51.4199C33.9844 51.7129 31.9141 51.8691 29.9414 51.8887C27.2461 51.8887 24.5605 51.6445 21.8848 51.1562C19.209 50.668 16.5918 49.9453 14.0332 48.9883C11.4746 48.0312 9.04297 46.8496 6.73828 45.4434C4.43359 44.0371 2.27539 42.4062 0.263672 40.5508C0.0878906 40.375 0 40.1992 0 40.0234C0 39.8867 0.0488281 39.7793 0.146484 39.7012C0.244141 39.623 0.361328 39.5742 0.498047 39.5547C0.634766 39.5547 0.78125 39.6035 0.9375 39.7012C5.56641 42.2598 10.3418 44.2129 15.2637 45.5605C20.1855 46.9082 25.3125 47.582 30.6445 47.582C34.5703 47.582 38.418 47.1816 42.1875 46.3809C45.957 45.5801 49.6582 44.4375 53.291 42.9531C53.3887 42.9141 53.4668 42.8848 53.5254 42.8652C53.584 42.8457 53.6719 42.8359 53.7891 42.8359ZM60 40.5215C60 41.2637 59.9023 42.0547 59.707 42.8945C59.5117 43.7344 59.2383 44.5742 58.8867 45.4141C58.5352 46.2539 58.1152 47.0254 57.627 47.7285C57.1387 48.4316 56.6113 49.0273 56.0449 49.5156C55.9668 49.5742 55.8887 49.623 55.8105 49.6621C55.7324 49.7012 55.6348 49.7305 55.5176 49.75C55.3027 49.75 55.1953 49.6328 55.1953 49.3984C55.1953 49.2422 55.293 48.9004 55.4883 48.373C55.6836 47.8457 55.918 47.2305 56.1914 46.5273C56.4648 45.8242 56.6895 45.1113 56.8652 44.3887C57.041 43.666 57.1484 43.0117 57.1875 42.4258C57.1875 42.0547 57.1094 41.7715 56.9531 41.5762C56.7969 41.3809 56.582 41.2246 56.3086 41.1074C56.0352 40.9902 55.752 40.9316 55.459 40.9316C55.166 40.9316 54.8633 40.9121 54.5508 40.873H54.082C53.2617 40.873 52.4609 40.9121 51.6797 40.9902C50.8984 41.0684 50.0977 41.1562 49.2773 41.2539H49.1602C49.0625 41.2539 48.9746 41.2344 48.8965 41.1953C48.8184 41.1562 48.7695 41.0684 48.75 40.9316C48.75 40.8145 48.7891 40.707 48.8672 40.6094C48.9453 40.5117 49.0332 40.4238 49.1309 40.3457C49.5605 40.0137 50.0488 39.7305 50.5957 39.4961C51.1426 39.2617 51.7188 39.0762 52.3242 38.9395C52.9297 38.8027 53.5352 38.6953 54.1406 38.6172C54.7461 38.5391 55.3125 38.5 55.8398 38.5C56.0156 38.5 56.2988 38.5098 56.6895 38.5293C57.0801 38.5488 57.4805 38.5879 57.8906 38.6465C58.3008 38.7051 58.6914 38.7832 59.0625 38.8809C59.4336 38.9785 59.668 39.125 59.7656 39.3203C59.8633 39.4766 59.9219 39.6621 59.9414 39.877C59.9609 40.0918 59.9805 40.3066 60 40.5215Z" fill="url(#paint0_linear_72_332)"/>
</g>
<defs>
<linearGradient id="paint0_linear_72_332" x1="0" y1="16" x2="63.9294" y2="25.5303" gradientUnits="userSpaceOnUse">
<stop stop-color="#2FBBFB"/>
<stop offset="0.526042" stop-color="#D442E0"/>
<stop offset="1" stop-color="#F15D3C"/>
</linearGradient>
</defs>
</svg>
