<svg width="40" height="40" viewBox="0 0 60 60" fill="none" xmlns="http://www.w3.org/2000/svg">
<g id="nimbus:marketing" clip-path="url(#clip0_72_324)">
<path id="Vector" d="M53.4375 7.87485C52.7928 7.45778 52.0556 7.20546 51.2905 7.14008C50.5255 7.07469 49.7561 7.19823 49.05 7.49985L25.9125 16.6123C25.3647 16.8353 24.7789 16.9499 24.1875 16.9498H9.375C8.1318 16.9498 6.93951 17.4437 6.06044 18.3228C5.18136 19.2019 4.6875 20.3941 4.6875 21.6374V22.0123H0V33.2624H4.6875V33.7499C4.71688 34.9735 5.22367 36.137 6.09959 36.9919C6.9755 37.8468 8.15105 38.3252 9.375 38.3249L15 50.2499C15.3809 51.0529 15.9805 51.7322 16.7301 52.2098C17.4797 52.6874 18.3487 52.9439 19.2375 52.9499H21.6C22.8367 52.94 24.0194 52.4417 24.8903 51.5637C25.7613 50.6857 26.25 49.4991 26.25 48.2624V38.7749L49.05 47.8874C49.6108 48.1105 50.2089 48.2251 50.8125 48.2249C51.7489 48.2097 52.6608 47.9232 53.4375 47.3999C54.0543 46.9834 54.5631 46.4261 54.9217 45.774C55.2804 45.1219 55.4786 44.3938 55.5 43.6499V11.7373C55.4966 10.9743 55.3069 10.2236 54.9475 9.55048C54.588 8.87736 54.0697 8.30216 53.4375 7.87485ZM21.5625 21.6374V33.7499H9.375V21.6374H21.5625ZM21.5625 48.2624H19.2L14.5875 38.3249H21.5625V48.2624ZM27.6375 34.3123C27.1923 34.0848 26.728 33.8966 26.25 33.7499V21.3748C26.7234 21.2772 27.1876 21.1392 27.6375 20.9624L50.8125 11.7373V43.5374L27.6375 34.3123ZM55.6125 22.9498V32.3249C56.8557 32.3249 58.048 31.831 58.9271 30.9519C59.8061 30.0728 60.3 28.8806 60.3 27.6374C60.3 26.3941 59.8061 25.2019 58.9271 24.3228C58.048 23.4437 56.8557 22.9498 55.6125 22.9498Z" fill="url(#paint0_linear_72_324)"/>
</g>
<defs>
<linearGradient id="paint0_linear_72_324" x1="0" y1="7.12305" x2="64.785" y2="14.7243" gradientUnits="userSpaceOnUse">
<stop stop-color="#2FBBFB"/>
<stop offset="0.526042" stop-color="#D442E0"/>
<stop offset="1" stop-color="#F15D3C"/>
</linearGradient>
<clipPath id="clip0_72_324">
<rect width="60" height="60" fill="white"/>
</clipPath>
</defs>
</svg>
