<svg width="40" height="40" viewBox="0 0 60 60" fill="none" xmlns="http://www.w3.org/2000/svg">
<g id="fluent:app-span-16-regular">
<path id="Vector" d="M15 11.25C15 9.26088 15.7902 7.35322 17.1967 5.9467C18.6032 4.54018 20.5109 3.75 22.5 3.75H37.5C39.4891 3.75 41.3968 4.54018 42.8033 5.9467C44.2098 7.35322 45 9.26088 45 11.25V19.0688C43.9013 19.4543 42.9499 20.1723 42.2779 21.1232C41.6059 22.0741 41.2466 23.2106 41.25 24.375V11.25C41.25 10.2554 40.8549 9.30161 40.1516 8.59835C39.4484 7.89509 38.4946 7.5 37.5 7.5H22.5C21.5054 7.5 20.5516 7.89509 19.8484 8.59835C19.1451 9.30161 18.75 10.2554 18.75 11.25V24.3525C18.7487 23.192 18.3873 22.0604 17.7156 21.114C17.0439 20.1676 16.0951 19.453 15 19.0688V11.25ZM41.25 39.375V48.75C41.25 49.7446 40.8549 50.6984 40.1516 51.4016C39.4484 52.1049 38.4946 52.5 37.5 52.5H22.5C21.5054 52.5 20.5516 52.1049 19.8484 51.4016C19.1451 50.6984 18.75 49.7446 18.75 48.75V39.3975C18.7487 40.558 18.3873 41.6896 17.7156 42.636C17.0439 43.5824 16.0951 44.297 15 44.6813V48.75C15 50.7391 15.7902 52.6468 17.1967 54.0533C18.6032 55.4598 20.5109 56.25 22.5 56.25H37.5C39.4891 56.25 41.3968 55.4598 42.8033 54.0533C44.2098 52.6468 45 50.7391 45 48.75V44.6813C43.9013 44.2957 42.9499 43.5777 42.2779 42.6268C41.6059 41.6759 41.2466 40.5394 41.25 39.375ZM4.30125 30.5475L11.8013 23.0475C12.1533 22.6959 12.6306 22.4986 13.1282 22.499C13.6258 22.4993 14.1028 22.6973 14.4544 23.0494C14.806 23.4015 15.0033 23.8788 15.0029 24.3763C15.0026 24.8739 14.8046 25.3509 14.4525 25.7025L10.1512 30H20.625C21.1223 30 21.5992 30.1975 21.9508 30.5492C22.3025 30.9008 22.5 31.3777 22.5 31.875C22.5 32.3723 22.3025 32.8492 21.9508 33.2008C21.5992 33.5525 21.1223 33.75 20.625 33.75H10.1512L14.4525 38.0475C14.8046 38.3996 15.0024 38.8771 15.0024 39.375C15.0024 39.8729 14.8046 40.3504 14.4525 40.7025C14.1004 41.0546 13.6229 41.2524 13.125 41.2524C12.6271 41.2524 12.1496 41.0546 11.7975 40.7025L4.2975 33.2025C3.94848 32.8532 3.75168 32.3801 3.75 31.8863V31.8637C3.75223 31.3748 3.94611 30.9063 4.29 30.5588L4.30125 30.5475ZM48.2025 40.7025L55.7025 33.2025L55.71 33.1912C56.0532 32.8433 56.247 32.375 56.25 31.8863V31.8637C56.2469 31.3713 56.0503 30.8999 55.7025 30.5513L48.2025 23.0512C47.8509 22.6992 47.3739 22.5012 46.8763 22.5008C46.3788 22.5005 45.9014 22.6978 45.5494 23.0494C45.1973 23.401 44.9993 23.878 44.999 24.3755C44.9986 24.8731 45.1959 25.3504 45.5475 25.7025L49.8488 30H39.375C38.8777 30 38.4008 30.1975 38.0492 30.5492C37.6975 30.9008 37.5 31.3777 37.5 31.875C37.5 32.3723 37.6975 32.8492 38.0492 33.2008C38.4008 33.5525 38.8777 33.75 39.375 33.75H49.8488L45.5475 38.0475C45.1954 38.3996 44.9976 38.8771 44.9976 39.375C44.9976 39.8729 45.1954 40.3504 45.5475 40.7025C45.8996 41.0546 46.3771 41.2524 46.875 41.2524C47.3729 41.2524 47.8504 41.0546 48.2025 40.7025Z" fill="url(#paint0_linear_72_294)"/>
</g>
<defs>
<linearGradient id="paint0_linear_72_294" x1="3.75" y1="3.75" x2="60.4803" y2="8.80856" gradientUnits="userSpaceOnUse">
<stop stop-color="#2FBBFB"/>
<stop offset="0.526042" stop-color="#D442E0"/>
<stop offset="1" stop-color="#F15D3C"/>
</linearGradient>
</defs>
</svg>
