<svg width="40" height="40" viewBox="0 0 60 60" fill="none" xmlns="http://www.w3.org/2000/svg">
<g id="ri:nft-line">
<path id="Vector" d="M22.5 30C23.8261 30 25.0979 29.4732 26.0355 28.5355C26.9732 27.5978 27.5 26.3261 27.5 25C27.5 23.6739 26.9732 22.4021 26.0355 21.4645C25.0979 20.5268 23.8261 20 22.5 20C21.1739 20 19.9021 20.5268 18.9645 21.4645C18.0268 22.4021 17.5 23.6739 17.5 25C17.5 26.3261 18.0268 27.5978 18.9645 28.5355C19.9021 29.4732 21.1739 30 22.5 30ZM53.75 16.25L30 2.5L6.25 16.25V43.75L30 57.5L53.75 43.75V16.25ZM30 8.2775L48.75 19.1325V36.3325L37.345 29.4925L17.4175 44.4375L11.25 40.8675V19.1325L30 8.2775ZM30 51.7225L22.12 47.16L37.655 35.51L47.65 41.505L30 51.7225Z" fill="url(#paint0_linear_72_340)"/>
</g>
<defs>
<linearGradient id="paint0_linear_72_340" x1="6.25" y1="2.5" x2="57.6805" y2="6.46062" gradientUnits="userSpaceOnUse">
<stop stop-color="#2FBBFB"/>
<stop offset="0.526042" stop-color="#D442E0"/>
<stop offset="1" stop-color="#F15D3C"/>
</linearGradient>
</defs>
</svg>
