<svg width="40" height="40" viewBox="0 0 60 60" fill="none" xmlns="http://www.w3.org/2000/svg">
<g id="icon-park-outline:web-page">
<g id="Group">
<path id="Vector" d="M51.25 10H8.75C6.67893 10 5 11.6789 5 13.75V46.25C5 48.3211 6.67893 50 8.75 50H51.25C53.3211 50 55 48.3211 55 46.25V13.75C55 11.6789 53.3211 10 51.25 10Z" stroke="url(#paint0_linear_72_302)" stroke-width="5" stroke-linejoin="round"/>
<path id="Vector_2" d="M5 13.75C5 12.7554 5.39509 11.8016 6.09835 11.0983C6.80161 10.3951 7.75544 10 8.75 10H51.25C52.2446 10 53.1984 10.3951 53.9016 11.0983C54.6049 11.8016 55 12.7554 55 13.75V25H5V13.75Z" stroke="url(#paint1_linear_72_302)" stroke-width="5"/>
<path id="Vector_3" d="M12.5 15.625C11.4645 15.625 10.625 16.4645 10.625 17.5C10.625 18.5355 11.4645 19.375 12.5 19.375C13.5355 19.375 14.375 18.5355 14.375 17.5C14.375 16.4645 13.5355 15.625 12.5 15.625Z" fill="#111215" stroke="url(#paint2_linear_72_302)" stroke-width="1.25"/>
<path id="Vector_4" d="M20 15.625C18.9645 15.625 18.125 16.4645 18.125 17.5C18.125 18.5355 18.9645 19.375 20 19.375C21.0355 19.375 21.875 18.5355 21.875 17.5C21.875 16.4645 21.0355 15.625 20 15.625Z" fill="#111215" stroke="url(#paint3_linear_72_302)" stroke-width="1.25"/>
</g>
</g>
<defs>
<linearGradient id="paint0_linear_72_302" x1="5" y1="10" x2="58.7902" y2="15.9955" gradientUnits="userSpaceOnUse">
<stop stop-color="#2FBBFB"/>
<stop offset="0.526042" stop-color="#D442E0"/>
<stop offset="1" stop-color="#F15D3C"/>
</linearGradient>
<linearGradient id="paint1_linear_72_302" x1="5" y1="10" x2="55.0378" y2="24.8727" gradientUnits="userSpaceOnUse">
<stop stop-color="#2FBBFB"/>
<stop offset="0.526042" stop-color="#D442E0"/>
<stop offset="1" stop-color="#F15D3C"/>
</linearGradient>
<linearGradient id="paint2_linear_72_302" x1="15" y1="20" x2="14.5182" y2="14.5971" gradientUnits="userSpaceOnUse">
<stop stop-color="#2FBBFB"/>
<stop offset="0.526042" stop-color="#D442E0"/>
<stop offset="1" stop-color="#F15D3C"/>
</linearGradient>
<linearGradient id="paint3_linear_72_302" x1="22.5" y1="20" x2="22.0182" y2="14.5971" gradientUnits="userSpaceOnUse">
<stop stop-color="#2FBBFB"/>
<stop offset="0.526042" stop-color="#D442E0"/>
<stop offset="1" stop-color="#F15D3C"/>
</linearGradient>
</defs>
</svg>
