<svg width="110" height="110" viewBox="0 0 110 110" fill="none" xmlns="http://www.w3.org/2000/svg">
<g id="html-5-logo-svgrepo-com 1">
<rect width="110" height="110" rx="20" fill="#1D1F2C"/>
<path id="Vector" d="M92.1235 23.3516L85.3592 99.1291L54.9534 107.558L24.6313 99.1407L17.874 23.3516H92.1235Z" fill="#E44D26"/>
<path id="Vector_2" d="M55 101.11L79.5695 94.2984L85.3497 29.543H55V101.11Z" fill="#F16529"/>
<path id="Vector_3" d="M41.8499 48.1351H54.9995V38.8398H31.6914L31.9138 41.3336L34.1985 66.9488H54.9995V57.6535H42.6995L41.8499 48.1351ZM43.9449 71.5965H34.6138L35.916 86.1915L54.9567 91.4769L54.9995 91.4653V81.7943L54.9587 81.8051L44.6067 79.0098L43.9449 71.5965Z" fill="#EBEBEB"/>
<path id="Vector_4" d="M24.7822 2.74805H29.5059V7.41502H33.8272V2.74805H38.5512V16.8808H33.8274V12.1483H29.5062V16.8808H24.7825L24.7822 2.74805ZM44.7627 7.43481H40.6048V2.74805H53.6479V7.43481H49.4873V16.8808H44.7636V7.43481H44.7627ZM55.7178 2.74805H60.6432L63.673 7.71392L66.7 2.74805H71.6274V16.8808H66.9229V9.87583L63.673 14.9008H63.5916L60.3397 9.87583V16.8808H55.7178V2.74805ZM73.9782 2.74805H78.7034V12.2095H85.3463V16.8808H73.9779V2.74805H73.9782Z" fill="white"/>
<path id="Vector_5" d="M54.9681 66.9488H66.4141L65.3349 79.004L54.9678 81.8021V91.4725L74.0236 86.1915L74.1633 84.621L76.3479 60.1496L76.5747 57.6535H54.9681V66.9488ZM54.9681 48.1124V48.1351H77.4205L77.6067 46.0459L78.0305 41.3336L78.2526 38.8398H54.9681V48.1124Z" fill="white"/>
</g>
</svg>
