<svg width="110" height="110" viewBox="0 0 110 110" fill="none" xmlns="http://www.w3.org/2000/svg">
<g id="javascript-svgrepo-com 1">
<rect width="110" height="110" rx="20" fill="#1D1F2C"/>
<g id="Group">
<path id="Vector" d="M71.6644 2.75195H17.8384C16.3398 2.75195 15.125 3.96676 15.125 6.32404V104.758C15.125 105.398 16.3398 106.613 17.8384 106.613H92.1621C93.6607 106.613 94.8755 105.398 94.8755 104.758V26.8218C94.8755 25.5309 94.703 25.1155 94.3989 24.8095L72.818 3.2286C72.512 2.92444 72.0965 2.75195 71.6644 2.75195Z" fill="#E9E9E0"/>
<path id="Vector_2" d="M72.6191 3.03125V25.0072H94.5951L72.6191 3.03125Z" fill="#D9D7CA"/>
<path id="Vector_3" d="M92.1621 106.615H17.8384C16.3398 106.615 15.125 105.4 15.125 103.902V75.0859H94.8755V103.902C94.8755 105.4 93.6607 106.615 92.1621 106.615Z" fill="#EEAF4B"/>
<g id="Group_2">
<path id="Vector_4" d="M51.3284 81.9823V96.5377C51.3284 97.4168 51.1671 98.1568 50.8462 98.7559C50.5235 99.355 50.0932 99.8372 49.5535 100.201C49.012 100.564 48.3906 100.818 47.6896 100.961C46.9885 101.104 46.2633 101.176 45.5215 101.176C45.1487 101.176 44.7129 101.137 44.2158 101.061C43.7188 100.985 43.2013 100.868 42.669 100.707C42.1367 100.546 41.6248 100.364 41.1352 100.162C40.6437 99.9596 40.2301 99.7315 39.8926 99.4774L41.1853 97.4243C41.3541 97.5411 41.5952 97.6654 41.9086 97.7915C42.222 97.9176 42.5633 98.0363 42.9361 98.1457C43.307 98.257 43.6965 98.3516 44.1027 98.4369C44.5088 98.5222 44.889 98.563 45.2433 98.563C46.1372 98.563 46.8531 98.3887 47.3854 98.0437C47.9177 97.6987 48.1996 97.109 48.2349 96.2818V81.9805H51.3284V81.9823Z" fill="white"/>
<path id="Vector_5" d="M66.4676 95.9278C66.4676 96.6029 66.3286 97.2594 66.0485 97.8937C65.7684 98.528 65.3771 99.0863 64.8689 99.5666C64.3608 100.047 63.7357 100.433 62.992 100.72C62.2483 101.008 61.4026 101.151 60.4567 101.151C60.0505 101.151 59.6332 101.128 59.2011 101.087C58.7689 101.047 58.3331 100.972 57.8954 100.872C57.4558 100.77 57.0367 100.631 56.6398 100.453C56.2429 100.275 55.8998 100.06 55.6123 99.8059L56.1446 97.6248C56.3801 97.7602 56.6806 97.8919 57.0441 98.018C57.4076 98.1441 57.7823 98.2628 58.1717 98.3722C58.5594 98.4835 58.9488 98.5707 59.3383 98.6393C59.7259 98.7061 60.0895 98.7413 60.4289 98.7413C61.4601 98.7413 62.2501 98.5002 62.7991 98.018C63.3481 97.5358 63.6226 96.8217 63.6226 95.8758C63.6226 95.3009 63.4279 94.8113 63.0402 94.4051C62.6508 93.9989 62.1648 93.6317 61.5825 93.3016C61.0001 92.9714 60.3695 92.6432 59.6926 92.313C59.0156 91.9829 58.3813 91.5934 57.7915 91.1464C57.1999 90.6995 56.7084 90.1709 56.3208 89.5626C55.9313 88.9542 55.7384 88.1938 55.7384 87.2813C55.7384 86.4542 55.8905 85.7178 56.1947 85.0761C56.4988 84.4344 56.9087 83.8873 57.4243 83.4403C57.9399 82.9933 58.5408 82.6502 59.2252 82.4128C59.9096 82.1754 60.6329 82.0586 61.3933 82.0586C62.1704 82.0586 62.9568 82.1309 63.7506 82.2737C64.5444 82.4165 65.1861 82.6502 65.6776 82.9711C65.5756 83.1899 65.4569 83.431 65.3233 83.6944C65.1879 83.9578 65.06 84.2007 64.9431 84.4289C64.8244 84.657 64.7224 84.848 64.639 85.0001C64.5536 85.1522 64.5036 85.2375 64.4869 85.2542C64.3849 85.2041 64.2717 85.1373 64.1438 85.052C64.0158 84.9667 63.834 84.8832 63.5985 84.7979C63.3611 84.7126 63.0477 84.6551 62.66 84.6199C62.2705 84.5846 61.7716 84.5939 61.1633 84.6459C60.8239 84.6811 60.5049 84.7757 60.1989 84.937C59.8929 85.0984 59.6221 85.295 59.3865 85.5324C59.1491 85.7698 58.9618 86.035 58.8283 86.3317C58.6929 86.6266 58.6261 86.9123 58.6261 87.1812C58.6261 87.8563 58.819 88.4015 59.2085 88.817C59.5961 89.2324 60.0783 89.5941 60.6533 89.9075C61.2282 90.221 61.8514 90.5251 62.5302 90.82C63.2053 91.1149 63.8359 91.4766 64.4201 91.8976C65.0043 92.3186 65.4884 92.849 65.8779 93.4815C66.2711 94.1158 66.4676 94.93 66.4676 95.9278Z" fill="white"/>
</g>
<g id="Group_3">
<path id="Vector_6" d="M39.2352 37.9905V30.5718C39.2352 29.5499 40.0661 28.7171 41.0899 28.7171C42.1155 28.7171 42.9446 27.8862 42.9446 26.8625C42.9446 25.8387 42.1155 25.0078 41.0899 25.0078C38.0223 25.0078 35.5259 27.5042 35.5259 30.5718V37.9905C35.5259 40.0361 33.8623 41.6998 31.8166 41.6998C30.7909 41.6998 29.9619 42.5307 29.9619 43.5544C29.9619 44.5782 30.7909 45.4091 31.8166 45.4091C33.8623 45.4091 35.5259 47.0727 35.5259 49.1184V56.5371C35.5259 59.6047 38.0223 62.1011 41.0899 62.1011C42.1155 62.1011 42.9446 61.2702 42.9446 60.2464C42.9446 59.2226 42.1155 58.3918 41.0899 58.3918C40.0661 58.3918 39.2352 57.559 39.2352 56.5371V49.1184C39.2352 46.8928 38.23 44.9158 36.6721 43.5544C38.23 42.1931 39.2352 40.2161 39.2352 37.9905Z" fill="#EEAF4B"/>
<path id="Vector_7" d="M54.073 39.8491C55.6095 39.8491 56.855 38.6036 56.855 37.0672C56.855 35.5307 55.6095 34.2852 54.073 34.2852C52.5366 34.2852 51.291 35.5307 51.291 37.0672C51.291 38.6036 52.5366 39.8491 54.073 39.8491Z" fill="#EEAF4B"/>
<path id="Vector_8" d="M76.3292 41.6998C74.2835 41.6998 72.6198 40.0361 72.6198 37.9905V30.5718C72.6198 27.5042 70.1234 25.0078 67.0558 25.0078C66.0302 25.0078 65.2012 25.8387 65.2012 26.8625C65.2012 27.8862 66.0302 28.7171 67.0558 28.7171C68.0796 28.7171 68.9105 29.5499 68.9105 30.5718V37.9905C68.9105 40.2161 69.9157 42.1931 71.4736 43.5544C69.9157 44.9158 68.9105 46.8928 68.9105 49.1184V56.5371C68.9105 57.559 68.0796 58.3918 67.0558 58.3918C66.0302 58.3918 65.2012 59.2226 65.2012 60.2464C65.2012 61.2702 66.0302 62.1011 67.0558 62.1011C70.1234 62.1011 72.6198 59.6047 72.6198 56.5371V49.1184C72.6198 47.0727 74.2835 45.4091 76.3292 45.4091C77.3548 45.4091 78.1838 44.5782 78.1838 43.5544C78.1838 42.5307 77.3548 41.6998 76.3292 41.6998Z" fill="#EEAF4B"/>
<path id="Vector_9" d="M54.0724 47.2656C53.0468 47.2656 52.2178 48.0965 52.2178 49.1203V54.6843C52.2178 55.7081 53.0468 56.5389 54.0724 56.5389C55.0981 56.5389 55.9271 55.7081 55.9271 54.6843V49.1203C55.9271 48.0965 55.0981 47.2656 54.0724 47.2656Z" fill="#EEAF4B"/>
</g>
</g>
</g>
</svg>
