<svg width="110" height="110" viewBox="0 0 110 110" fill="none" xmlns="http://www.w3.org/2000/svg">
<g id="php-svgrepo-com 1">
<rect width="110" height="110" rx="20" fill="#1D1F2C"/>
<g id="Group">
<path id="Vector" d="M55 83.1671C84.2366 83.1671 107.938 70.7056 107.938 55.3335C107.938 39.9615 84.2366 27.5 55 27.5C25.7634 27.5 2.0625 39.9615 2.0625 55.3335C2.0625 70.7056 25.7634 83.1671 55 83.1671Z" fill="url(#paint0_radial_72_207)"/>
<path id="Vector_2" d="M55.0005 81.0997C83.095 81.0997 105.87 69.564 105.87 55.334C105.87 41.104 83.095 29.5684 55.0005 29.5684C26.906 29.5684 4.13086 41.104 4.13086 55.334C4.13086 69.564 26.906 81.0997 55.0005 81.0997Z" fill="#6181B6"/>
<g id="Group_2">
<path id="Vector_3" d="M65.2978 63.6862L67.8206 50.7C68.3996 47.7636 67.9033 45.5716 66.4144 44.2068C64.9669 42.8834 62.4855 42.2217 58.846 42.2217H54.4621L55.7029 35.7699C55.7442 35.5218 55.7029 35.2736 55.5374 35.0668C55.372 34.8601 55.1652 34.7773 54.9171 34.7773H48.8789C48.4653 34.7773 48.1344 35.0668 48.0517 35.4391L45.3635 49.2111C45.1154 47.6395 44.5364 46.3161 43.5438 45.2408C41.7654 43.2143 38.9945 42.1803 35.2309 42.1803H23.6095C23.1959 42.1803 22.8651 42.4698 22.7823 42.842L17.3645 70.7997C17.3232 71.0478 17.3645 71.296 17.53 71.5027C17.6954 71.7095 17.9022 71.7922 18.1503 71.7922H24.2299C24.6434 71.7922 24.9743 71.5027 25.057 71.1305L26.3804 64.3893H30.8884C33.2458 64.3893 35.2723 64.1411 36.8025 63.6448C38.4155 63.1072 39.863 62.2387 41.145 61.0393C42.179 60.0881 43.0475 59.0128 43.7092 57.8548L42.6339 63.438C42.5926 63.6862 42.6339 63.9343 42.7993 64.1411C42.9648 64.3479 43.1716 64.4306 43.4197 64.4306H49.4579C49.8715 64.4306 50.2023 64.1411 50.285 63.7689L53.2628 48.4667H57.3985C59.1769 48.4667 59.6732 48.7975 59.8386 48.9629C59.9627 49.087 60.2108 49.5833 59.9213 51.1135L57.5226 63.4794C57.4812 63.7275 57.5226 63.9757 57.688 64.1825C57.8534 64.3893 58.0602 64.472 58.3084 64.472H64.512C64.8842 64.3479 65.2151 64.0584 65.2978 63.6862ZM37.3402 52.9333C36.9679 54.8771 36.2649 56.2832 35.2309 57.069C34.197 57.8548 32.5013 58.2684 30.268 58.2684H27.5798L29.5236 48.2599H32.9976C35.5618 48.2599 36.5957 48.7975 37.0093 49.2524C37.5469 49.9142 37.671 51.1962 37.3402 52.9333Z" fill="white"/>
<path id="Vector_4" d="M91.105 45.2401C89.3266 43.2136 86.5557 42.1797 82.7922 42.1797H71.088C70.6744 42.1797 70.3436 42.4692 70.2609 42.8414L64.843 70.7577C64.8017 71.0058 64.843 71.254 65.0085 71.4607C65.1739 71.6675 65.3807 71.7502 65.6288 71.7502H71.7084C72.1219 71.7502 72.4528 71.4607 72.5355 71.0885L73.859 64.3473H78.3669C80.7243 64.3473 82.7508 64.0991 84.281 63.6028C85.894 63.0652 87.3415 62.1967 88.6236 60.9973C89.6989 60.0047 90.6087 58.8881 91.2704 57.6887C91.9322 56.4894 92.4284 55.1659 92.7179 53.7184C93.421 50.1203 92.8834 47.308 91.105 45.2401ZM84.7773 52.9326C84.4051 54.8764 83.702 56.2826 82.6681 57.0684C81.6342 57.8542 79.9385 58.2677 77.7052 58.2677H75.017L76.9608 48.2592H80.4348C82.999 48.2592 84.0329 48.7969 84.4465 49.2518C85.0255 49.9135 85.1495 51.1956 84.7773 52.9326Z" fill="white"/>
</g>
<g id="Group_3">
<path id="Vector_5" d="M32.9974 47.435C35.3134 47.435 36.8436 47.8486 37.6294 48.7171C38.4152 49.5856 38.5806 51.0331 38.167 53.101C37.7535 55.2516 36.9263 56.8231 35.727 57.733C34.5276 58.6429 32.7079 59.0978 30.2678 59.0978H26.587L28.8616 47.435H32.9974ZM18.1914 70.926H24.2709L25.7185 63.523H30.9295C33.2455 63.523 35.1066 63.2749 36.5955 62.7786C38.0843 62.2823 39.4078 61.4965 40.6485 60.3385C41.6824 59.3873 42.5096 58.3534 43.1299 57.2367C43.7503 56.1201 44.2052 54.8793 44.4534 53.5146C45.1151 50.206 44.6188 47.6418 43.0059 45.7807C41.3929 43.9196 38.8288 43.0098 35.3134 43.0098H23.6092L18.1914 70.926Z" fill="#000004"/>
<path id="Vector_6" d="M48.9198 35.6074H54.958L53.5105 43.0104H58.8869C62.2782 43.0104 64.5942 43.5894 65.8763 44.7888C67.1584 45.9881 67.5306 47.8906 67.0343 50.5375L64.5115 63.5237H58.3906L60.7894 51.1578C61.0789 49.7517 60.9548 48.8004 60.4999 48.3041C60.0449 47.8079 59.011 47.5184 57.4808 47.5184H52.6419L49.5401 63.5237H43.502L48.9198 35.6074Z" fill="#000004"/>
<path id="Vector_7" d="M80.4339 47.435C82.7499 47.435 84.2801 47.8486 85.0659 48.7171C85.8517 49.5856 86.0171 51.0331 85.6036 53.101C85.19 55.2516 84.3628 56.8231 83.1635 57.733C81.9641 58.6429 80.1444 59.0978 77.7043 59.0978H74.0235L76.2981 47.435H80.4339ZM65.6279 70.926H71.7075L73.155 63.523H78.366C80.682 63.523 82.5431 63.2749 84.032 62.7786C85.5209 62.2823 86.8443 61.4965 88.085 60.3385C89.1189 59.3873 89.9461 58.3534 90.5665 57.2367C91.1868 56.1201 91.6418 54.8793 91.8899 53.5146C92.5516 50.206 92.0553 47.6418 90.4424 45.7807C88.8294 43.9196 86.2653 43.0098 82.7499 43.0098H71.0458L65.6279 70.926Z" fill="#000004"/>
</g>
</g>
</g>
<defs>
<radialGradient id="paint0_radial_72_207" cx="0" cy="0" r="1" gradientUnits="userSpaceOnUse" gradientTransform="translate(33.8464 37.2884) scale(69.5198 69.5198)">
<stop stop-color="white"/>
<stop offset="0.5" stop-color="#4C6B97"/>
<stop offset="1" stop-color="#231F20"/>
</radialGradient>
</defs>
</svg>
