<svg width="110" height="110" viewBox="0 0 110 110" fill="none" xmlns="http://www.w3.org/2000/svg">
<g id="rails-svgrepo-com 1">
<rect width="110" height="110" rx="20" fill="#1D1F2C"/>
<g id="Group">
<path id="Vector" d="M47.0754 68.0273C47.0754 68.0273 51.9243 67.6117 51.9243 61.3497C51.9243 55.0877 46.0502 54.5059 46.0502 54.5059H35.4658V74.2615H40.7857V69.4958L45.3852 74.2615H53.2542L47.0754 68.0273ZM45.025 63.9819H40.7857V59.4656H45.0527C45.0527 59.4656 46.2442 59.9089 46.2442 61.7099C46.2442 63.5109 45.025 63.9819 45.025 63.9819ZM65.0578 54.6444H59.6547C55.8034 54.6444 54.5011 58.1356 54.5011 59.7981V74.2615H59.9041V70.798H64.9746V74.2615H70.2114V59.7981C70.2114 55.5865 66.3877 54.6444 65.0578 54.6444ZM64.9746 65.2011H59.8764V60.4076C59.8764 60.4076 59.8764 59.327 61.5666 59.327H63.423C64.9192 59.327 64.9469 60.4076 64.9469 60.4076V65.2011H64.9746ZM72.6774 54.6444H78.3021V74.2615H72.6774V54.6444ZM86.1988 69.191V54.6444H80.6018V69.191V74.2615H86.1988H93.763V69.191H86.1988ZM95.6195 69.2464V74.2615H104.68C106.536 74.2615 109.723 72.9038 109.834 69.1079V67.1683C109.834 63.9265 107.174 62.0147 104.68 62.0147H100.164V59.6872H109.113V54.6444H100.524C98.3071 54.6444 95.3424 56.4731 95.3424 59.8812V61.6268C95.3424 65.0348 98.2794 66.7804 100.524 66.7804C106.758 66.8081 99.0275 66.7804 104.791 66.7804V69.2187L95.6195 69.2464Z" fill="#CC0000"/>
<path id="Vector_2" d="M1.93955 74.2333H23.8287C23.8287 74.2333 19.6448 55.1427 33.4987 47.4122C36.5189 45.9437 46.1335 40.4575 61.8715 52.0948C62.3703 51.6792 62.8413 51.3467 62.8413 51.3467C62.8413 51.3467 48.4332 36.9663 32.3904 38.5734C24.3275 39.2938 14.4081 46.6364 8.58942 56.3341C2.77078 66.0318 1.93955 74.2333 1.93955 74.2333ZM47.5466 40.125L47.6574 38.2686C47.4081 38.1301 46.7154 37.7976 44.9698 37.2988L44.8589 39.1275C45.7733 39.4323 46.6599 39.7648 47.5466 40.125ZM44.9144 45.9991L44.8035 47.7447C45.7179 47.7724 46.6322 47.8832 47.5466 48.0772L47.6574 46.3593C46.7154 46.1653 45.801 46.0545 44.9144 45.9991ZM34.6625 37.3542H34.9395L34.3854 35.6641C33.5264 35.6641 32.6398 35.7195 31.7254 35.8303L32.2519 37.4651C33.0554 37.3819 33.8589 37.3542 34.6625 37.3542ZM35.9924 47.5507L36.6297 49.4626C37.4332 49.0746 38.2368 48.7421 39.0403 48.4928L38.4307 46.6641C37.4887 46.9411 36.6851 47.2459 35.9924 47.5507ZM23.4131 40.2636L22.1662 38.3517C21.4735 38.7119 20.7531 39.0998 20.005 39.5432L21.2796 41.4827C22 41.0394 22.6927 40.6238 23.4131 40.2636ZM29.0932 52.7321L30.4232 54.727C30.8942 54.0343 31.4484 53.3971 32.0579 52.7598L30.8111 50.8756C30.1738 51.4575 29.5919 52.0948 29.0932 52.7321ZM25.0756 61.654L27.3199 63.4273C27.4307 62.3467 27.6247 61.2661 27.9018 60.1855L25.9068 58.6061C25.5466 59.6313 25.2972 60.6565 25.0756 61.654ZM12.9395 48.4928L10.9723 46.7749C10.2519 47.4676 9.55919 48.1603 8.92191 48.853L11.0554 50.6817C11.6373 49.9336 12.2746 49.1855 12.9395 48.4928ZM4.57179 60.8782L1.38539 59.7144C0.858942 60.9059 0.277078 62.2913 0 63.0394L3.1864 64.2031C3.5466 63.261 4.12846 61.9034 4.57179 60.8782ZM24.6599 68.6918C24.7154 70.1603 24.8539 71.3517 24.9924 72.1829L28.3174 73.3744C28.068 72.2938 27.8186 71.0746 27.6524 69.7724L24.6599 68.6918Z" fill="#CC0000"/>
</g>
</g>
</svg>
