<svg width="110" height="110" viewBox="0 0 110 110" fill="none" xmlns="http://www.w3.org/2000/svg">
<g id="react-svgrepo-com 1">
<rect width="110" height="110" rx="20" fill="#1D1F2C"/>
<path id="Vector" d="M64.2085 54.9168C64.2085 49.9861 60.0859 45.9883 54.9997 45.9883C49.9143 45.9883 45.791 49.9861 45.791 54.9168C45.791 59.8483 49.9143 63.8458 54.9997 63.8458C60.0859 63.8458 64.2085 59.8483 64.2085 54.9168Z" fill="#53C1DE"/>
<path id="Vector_2" fill-rule="evenodd" clip-rule="evenodd" d="M84.9076 38.3408C86.8522 30.6789 89.2966 16.4707 80.6795 11.6537C72.1026 6.85764 60.9414 16.0477 55.0478 21.5641C49.1714 16.1027 37.6967 6.95189 29.0869 11.7842C20.5133 16.5963 23.1572 30.569 25.145 38.279C17.1473 40.4814 3.4375 45.2251 3.4375 54.9172C3.4375 64.5817 17.133 69.7427 25.0834 71.9431C23.0882 79.6957 20.5767 93.4687 29.1612 98.2702C37.8032 103.102 49.2422 94.1686 55.1904 88.5919C61.1218 94.1407 72.1758 103.132 80.7544 98.3173C89.3599 93.4873 87.1186 79.4695 85.1307 71.7148C92.8376 69.5097 106.562 64.461 106.562 54.9172C106.562 45.3183 92.7792 40.536 84.9076 38.3408ZM83.9307 67.6053C82.6255 63.5992 80.8638 59.3391 78.7088 54.9385C80.7658 50.6416 82.4591 46.4365 83.7279 42.4562C89.4984 44.0784 102.157 47.7857 102.157 54.9172C102.157 62.1156 90.0096 65.858 83.9307 67.6053ZM78.5469 94.6206C72.1462 98.2128 62.6385 89.6142 58.2581 85.5281C61.1641 82.4464 64.0681 78.8638 66.9023 74.8856C71.8881 74.4569 76.5978 73.7557 80.8693 72.7983C82.2683 78.2836 84.9757 91.0123 78.5469 94.6206ZM31.3624 94.5694C24.9612 90.9906 27.887 78.7002 29.3548 72.9895C33.5787 73.8956 38.2546 74.5473 43.252 74.9402C46.1048 78.8329 49.093 82.411 52.1043 85.5446C48.3838 89.034 37.7936 98.1647 31.3624 94.5694ZM7.84262 54.9172C7.84262 47.6919 20.4259 44.0113 26.3279 42.3933C27.6186 46.463 29.3114 50.7183 31.3542 55.0213C29.2849 59.3883 27.568 63.711 26.2654 67.8287C20.6377 66.2667 7.84262 62.1469 7.84262 54.9172ZM31.294 15.4809C37.7214 11.8737 47.6943 20.6588 51.9609 24.6129C48.9651 27.7322 46.0044 31.2833 43.176 35.1536C38.3261 35.5895 33.6832 36.2893 29.415 37.2271C27.8137 31.0087 24.8735 19.0843 31.294 15.4809ZM70.0538 39.7963C73.3442 40.1988 76.4967 40.7344 79.4568 41.3896C78.5682 44.1512 77.4606 47.0391 76.1561 49.9995C74.2651 46.5207 72.2353 43.1117 70.0538 39.7963ZM55.0492 27.6653C57.0811 29.7996 59.1161 32.1829 61.1181 34.7686C57.0573 34.5823 52.9901 34.5816 48.9294 34.7658C50.9331 32.2041 52.9856 29.8244 55.0492 27.6653ZM33.8817 49.9964C32.5988 47.0463 31.5012 44.1457 30.6048 41.3445C33.5472 40.7062 36.685 40.1844 39.9541 39.7884C37.7664 43.0966 35.74 46.5042 33.8817 49.9964ZM40.0479 70.3508C36.6709 69.9854 33.4856 69.4901 30.5441 68.8693C31.4546 66.0189 32.5764 63.0558 33.8867 60.0421C35.7706 63.5707 37.828 67.0113 40.0479 70.3508ZM55.1712 82.4708C53.0833 80.2862 51.0005 77.87 48.9665 75.2713C53.0502 75.4267 57.1419 75.427 61.2253 75.2503C59.2171 77.8965 57.1893 80.3162 55.1712 82.4708ZM76.198 59.8888C77.5765 62.9351 78.7383 65.8821 79.6613 68.6843C76.671 69.3461 73.4429 69.8789 70.0415 70.2745C72.2391 66.8962 74.3012 63.4342 76.198 59.8888ZM64.4438 70.7922C58.1972 71.225 51.9118 71.2202 45.6631 70.8276C42.1125 65.7989 38.9517 60.5103 36.2233 55.0199C38.9386 49.5409 42.0764 44.2626 45.6101 39.2418C51.8633 38.7836 58.1549 38.7822 64.4081 39.2446C67.9116 44.265 71.0445 49.5296 73.8227 54.9591C71.0775 60.4354 67.9233 65.7243 64.4438 70.7922ZM78.4792 15.3539C84.9083 18.9494 82.0466 31.7187 80.642 37.2714C76.3637 36.3141 71.7176 35.6018 66.8535 35.1591C64.0197 31.247 61.0837 27.6897 58.1364 24.6107C62.4577 20.5714 72.1122 11.7937 78.4792 15.3539Z" fill="#53C1DE"/>
</g>
</svg>
