<svg width="54" height="54" viewBox="-12 -12 80 80" fill="none" xmlns="http://www.w3.org/2000/svg">
<g id="Iconsax/Linear/location">
<path id="Vector" d="M26.9995 30.2177C27.9214 30.2177 28.8342 30.0362 29.6859 29.6834C30.5376 29.3306 31.3115 28.8135 31.9634 28.1616C32.6152 27.5098 33.1323 26.7359 33.4851 25.8842C33.8379 25.0325 34.0195 24.1196 34.0195 23.1977C34.0195 22.2759 33.8379 21.363 33.4851 20.5113C33.1323 19.6596 32.6152 18.8857 31.9634 18.2338C31.3115 17.582 30.5376 17.0649 29.6859 16.7121C28.8342 16.3593 27.9214 16.1777 26.9995 16.1777C25.1377 16.1777 23.3521 16.9173 22.0356 18.2338C20.7191 19.5503 19.9795 21.3359 19.9795 23.1977C19.9795 25.0596 20.7191 26.8451 22.0356 28.1616C23.3521 29.4781 25.1377 30.2177 26.9995 30.2177Z" stroke="url(#paint0_linear_72_389)" stroke-width="3.375"/>
<path id="Vector_2" d="M8.14581 19.1025C12.5783 -0.382495 41.4458 -0.359994 45.8558 19.125C48.4433 30.555 41.3333 40.23 35.1008 46.215C32.923 48.3155 30.0153 49.4892 26.9896 49.4892C23.9639 49.4892 21.0561 48.3155 18.8783 46.215C12.6683 40.23 5.55831 30.5325 8.14581 19.1025Z" stroke="url(#paint1_linear_72_389)" stroke-width="3.375"/>
</g>
<defs>
<linearGradient id="paint0_linear_72_389" x1="19.9795" y1="16.1777" x2="35.1508" y2="17.5305" gradientUnits="userSpaceOnUse">
<stop stop-color="#2FBBFB"/>
<stop offset="0.526042" stop-color="#D442E0"/>
<stop offset="1" stop-color="#F15D3C"/>
</linearGradient>
<linearGradient id="paint1_linear_72_389" x1="7.59961" y1="4.5" x2="49.6134" y2="7.73112" gradientUnits="userSpaceOnUse">
<stop stop-color="#2FBBFB"/>
<stop offset="0.526042" stop-color="#D442E0"/>
<stop offset="1" stop-color="#F15D3C"/>
</linearGradient>
</defs>
</svg>
