<svg width="56" height="56" viewBox="0 0 56 56" fill="none" xmlns="http://www.w3.org/2000/svg">
<g id="solar:user-broken">
<g id="Group">
<path id="Vector" d="M27.9993 23.3346C33.154 23.3346 37.3327 19.156 37.3327 14.0013C37.3327 8.84664 33.154 4.66797 27.9993 4.66797C22.8447 4.66797 18.666 8.84664 18.666 14.0013C18.666 19.156 22.8447 23.3346 27.9993 23.3346Z" stroke="white" stroke-width="3.5"/>
<path id="Vector_2" d="M46.6593 42.0007C46.6663 41.618 46.6663 41.2283 46.6663 40.834C46.6663 35.0357 38.3083 30.334 27.9997 30.334C17.691 30.334 9.33301 35.0357 9.33301 40.834C9.33301 46.6323 9.33301 51.334 27.9997 51.334C33.2053 51.334 36.9597 50.9676 39.6663 50.3143" stroke="white" stroke-width="3.5" stroke-linecap="round"/>
</g>
</g>
</svg>
