<svg width="56" height="56" viewBox="0 0 56 56" fill="none" xmlns="http://www.w3.org/2000/svg">
<g id="uil:calender">
<path id="Vector" d="M44.3327 9.33073H39.666V6.9974C39.666 6.37856 39.4202 5.78506 38.9826 5.34748C38.545 4.9099 37.9515 4.66406 37.3327 4.66406C36.7138 4.66406 36.1204 4.9099 35.6828 5.34748C35.2452 5.78506 34.9994 6.37856 34.9994 6.9974V9.33073H20.9993V6.9974C20.9993 6.37856 20.7535 5.78506 20.3159 5.34748C19.8783 4.9099 19.2849 4.66406 18.666 4.66406C18.0472 4.66406 17.4537 4.9099 17.0161 5.34748C16.5785 5.78506 16.3327 6.37856 16.3327 6.9974V9.33073H11.666C9.8095 9.33073 8.02902 10.0682 6.71627 11.381C5.40351 12.6937 4.66602 14.4742 4.66602 16.3307V44.3307C4.66602 46.1872 5.40351 47.9677 6.71627 49.2805C8.02902 50.5932 9.8095 51.3307 11.666 51.3307H44.3327C46.1892 51.3307 47.9697 50.5932 49.2824 49.2805C50.5952 47.9677 51.3327 46.1872 51.3327 44.3307V16.3307C51.3327 14.4742 50.5952 12.6937 49.2824 11.381C47.9697 10.0682 46.1892 9.33073 44.3327 9.33073ZM46.666 44.3307C46.666 44.9496 46.4202 45.5431 45.9826 45.9806C45.545 46.4182 44.9515 46.6641 44.3327 46.6641H11.666C11.0472 46.6641 10.4537 46.4182 10.0161 45.9806C9.57852 45.5431 9.33268 44.9496 9.33268 44.3307V27.9974H46.666V44.3307ZM46.666 23.3307H9.33268V16.3307C9.33268 15.7119 9.57852 15.1184 10.0161 14.6808C10.4537 14.2432 11.0472 13.9974 11.666 13.9974H16.3327V16.3307C16.3327 16.9496 16.5785 17.5431 17.0161 17.9806C17.4537 18.4182 18.0472 18.6641 18.666 18.6641C19.2849 18.6641 19.8783 18.4182 20.3159 17.9806C20.7535 17.5431 20.9993 16.9496 20.9993 16.3307V13.9974H34.9994V16.3307C34.9994 16.9496 35.2452 17.5431 35.6828 17.9806C36.1204 18.4182 36.7138 18.6641 37.3327 18.6641C37.9515 18.6641 38.545 18.4182 38.9826 17.9806C39.4202 17.5431 39.666 16.9496 39.666 16.3307V13.9974H44.3327C44.9515 13.9974 45.545 14.2432 45.9826 14.6808C46.4202 15.1184 46.666 15.7119 46.666 16.3307V23.3307Z" fill="white"/>
</g>
</svg>
