<svg width="56" height="56" viewBox="0 0 56 56" fill="none" xmlns="http://www.w3.org/2000/svg">
<g id="fluent:people-team-20-regular">
<path id="Vector" d="M27.9996 8.39961C26.8857 8.39961 25.8174 8.84211 25.0298 9.62976C24.2421 10.4174 23.7996 11.4857 23.7996 12.5996C23.7996 13.7135 24.2421 14.7818 25.0298 15.5695C25.8174 16.3571 26.8857 16.7996 27.9996 16.7996C29.1135 16.7996 30.1818 16.3571 30.9695 15.5695C31.7571 14.7818 32.1996 13.7135 32.1996 12.5996C32.1996 11.4857 31.7571 10.4174 30.9695 9.62976C30.1818 8.84211 29.1135 8.39961 27.9996 8.39961ZM20.9996 12.5996C20.9996 10.7431 21.7371 8.96262 23.0499 7.64986C24.3626 6.33711 26.1431 5.59961 27.9996 5.59961C29.8561 5.59961 31.6366 6.33711 32.9494 7.64986C34.2621 8.96262 34.9996 10.7431 34.9996 12.5996C34.9996 14.4561 34.2621 16.2366 32.9494 17.5494C31.6366 18.8621 29.8561 19.5996 27.9996 19.5996C26.1431 19.5996 24.3626 18.8621 23.0499 17.5494C21.7371 16.2366 20.9996 14.4561 20.9996 12.5996ZM43.3996 11.1996C42.657 11.1996 41.9448 11.4946 41.4197 12.0197C40.8946 12.5448 40.5996 13.257 40.5996 13.9996C40.5996 14.7422 40.8946 15.4544 41.4197 15.9795C41.9448 16.5046 42.657 16.7996 43.3996 16.7996C44.1422 16.7996 44.8544 16.5046 45.3795 15.9795C45.9046 15.4544 46.1996 14.7422 46.1996 13.9996C46.1996 13.257 45.9046 12.5448 45.3795 12.0197C44.8544 11.4946 44.1422 11.1996 43.3996 11.1996ZM37.7996 13.9996C37.7996 12.5144 38.3896 11.09 39.4398 10.0398C40.49 8.98961 41.9144 8.39961 43.3996 8.39961C44.8848 8.39961 46.3092 8.98961 47.3594 10.0398C48.4096 11.09 48.9996 12.5144 48.9996 13.9996C48.9996 15.4848 48.4096 16.9092 47.3594 17.9594C46.3092 19.0096 44.8848 19.5996 43.3996 19.5996C41.9144 19.5996 40.49 19.0096 39.4398 17.9594C38.3896 16.9092 37.7996 15.4848 37.7996 13.9996ZM9.79961 13.9996C9.79961 13.257 10.0946 12.5448 10.6197 12.0197C11.1448 11.4946 11.857 11.1996 12.5996 11.1996C13.3422 11.1996 14.0544 11.4946 14.5795 12.0197C15.1046 12.5448 15.3996 13.257 15.3996 13.9996C15.3996 14.7422 15.1046 15.4544 14.5795 15.9795C14.0544 16.5046 13.3422 16.7996 12.5996 16.7996C11.857 16.7996 11.1448 16.5046 10.6197 15.9795C10.0946 15.4544 9.79961 14.7422 9.79961 13.9996ZM12.5996 8.39961C11.1144 8.39961 9.69001 8.98961 8.63981 10.0398C7.58961 11.09 6.99961 12.5144 6.99961 13.9996C6.99961 15.4848 7.58961 16.9092 8.63981 17.9594C9.69001 19.0096 11.1144 19.5996 12.5996 19.5996C14.0848 19.5996 15.5092 19.0096 16.5594 17.9594C17.6096 16.9092 18.1996 15.4848 18.1996 13.9996C18.1996 12.5144 17.6096 11.09 16.5594 10.0398C15.5092 8.98961 14.0848 8.39961 12.5996 8.39961ZM14.2796 41.994C13.5215 42.032 12.7635 41.9154 12.0518 41.6514C11.3401 41.3873 10.6895 40.9814 10.1396 40.4581C9.58961 39.9349 9.15178 39.3053 8.85267 38.6076C8.55356 37.9099 8.39942 37.1587 8.39961 36.3996V25.8996C8.39961 25.714 8.47336 25.5359 8.60463 25.4046C8.73591 25.2734 8.91396 25.1996 9.09961 25.1996H14.0388C14.1508 24.172 14.5148 23.2172 15.0608 22.3996H9.09961C7.16761 22.3996 5.59961 23.9676 5.59961 25.8996V36.3996C5.59948 37.5983 5.85592 38.7832 6.35169 39.8746C6.84747 40.966 7.5711 41.9387 8.47396 42.7272C9.37682 43.5158 10.438 44.1019 11.5862 44.4464C12.7344 44.7908 13.943 44.8854 15.1308 44.724C14.754 43.8457 14.4687 42.9309 14.2796 41.994ZM40.8684 44.724C42.0562 44.8854 43.2648 44.7908 44.413 44.4464C45.5612 44.1019 46.6224 43.5158 47.5253 42.7272C48.4281 41.9387 49.1517 40.966 49.6475 39.8746C50.1433 38.7832 50.3997 37.5983 50.3996 36.3996V25.8996C50.3996 23.9676 48.8316 22.3996 46.8996 22.3996H40.9384C41.4872 23.2172 41.8484 24.172 41.9604 25.1996H46.8996C47.0853 25.1996 47.2633 25.2734 47.3946 25.4046C47.5259 25.5359 47.5996 25.714 47.5996 25.8996V36.3996C47.5998 37.1587 47.4457 37.9099 47.1465 38.6076C46.8474 39.3053 46.4096 39.9349 45.8596 40.4581C45.3097 40.9814 44.6591 41.3873 43.9474 41.6514C43.2357 41.9154 42.4778 42.032 41.7196 41.994C41.5305 42.9308 41.2452 43.8457 40.8684 44.724ZM20.2996 22.3996C18.3676 22.3996 16.7996 23.9676 16.7996 25.8996V39.1996C16.7996 42.17 17.9796 45.0188 20.08 47.1192C22.1804 49.2196 25.0292 50.3996 27.9996 50.3996C30.97 50.3996 33.8188 49.2196 35.9192 47.1192C38.0196 45.0188 39.1996 42.17 39.1996 39.1996V25.8996C39.1996 23.9676 37.6316 22.3996 35.6996 22.3996H20.2996ZM19.5996 25.8996C19.5996 25.714 19.6734 25.5359 19.8046 25.4046C19.9359 25.2734 20.114 25.1996 20.2996 25.1996H35.6996C35.8853 25.1996 36.0633 25.2734 36.1946 25.4046C36.3259 25.5359 36.3996 25.714 36.3996 25.8996V39.1996C36.3996 41.4274 35.5146 43.564 33.9393 45.1393C32.364 46.7146 30.2274 47.5996 27.9996 47.5996C25.7718 47.5996 23.6352 46.7146 22.0599 45.1393C20.4846 43.564 19.5996 41.4274 19.5996 39.1996V25.8996Z" fill="white"/>
</g>
</svg>
