<svg width="25" height="25" viewBox="0 0 25 25" fill="none" xmlns="http://www.w3.org/2000/svg">
<g id="ic:round-email">
<path id="Vector" d="M20.833 4.16602H4.16634C3.02051 4.16602 2.09342 5.10352 2.09342 6.24935L2.08301 18.7493C2.08301 19.8952 3.02051 20.8327 4.16634 20.8327H20.833C21.9788 20.8327 22.9163 19.8952 22.9163 18.7493V6.24935C22.9163 5.10352 21.9788 4.16602 20.833 4.16602ZM20.4163 8.5931L13.0518 13.1973C12.7184 13.4056 12.2809 13.4056 11.9476 13.1973L4.58301 8.5931C4.47856 8.53446 4.38709 8.45525 4.31414 8.36024C4.24119 8.26523 4.18828 8.15641 4.15861 8.04036C4.12893 7.92431 4.12312 7.80345 4.1415 7.68509C4.15989 7.56672 4.20211 7.45332 4.26559 7.35175C4.32908 7.25017 4.41251 7.16253 4.51085 7.09414C4.60918 7.02574 4.72037 6.97801 4.83769 6.95383C4.95501 6.92965 5.07601 6.92952 5.19338 6.95346C5.31074 6.9774 5.42203 7.0249 5.52051 7.0931L12.4997 11.4577L19.4788 7.0931C19.5773 7.0249 19.6886 6.9774 19.806 6.95346C19.9233 6.92952 20.0443 6.92965 20.1617 6.95383C20.279 6.97801 20.3902 7.02574 20.4885 7.09414C20.5868 7.16253 20.6703 7.25017 20.7338 7.35175C20.7972 7.45332 20.8395 7.56672 20.8578 7.68509C20.8762 7.80345 20.8704 7.92431 20.8407 8.04036C20.8111 8.15641 20.7582 8.26523 20.6852 8.36024C20.6123 8.45525 20.5208 8.53446 20.4163 8.5931Z" fill="url(#paint0_linear_116_38)"/>
</g>
<defs>
<linearGradient id="paint0_linear_116_38" x1="2.08301" y1="4.16602" x2="24.4956" y2="6.66414" gradientUnits="userSpaceOnUse">
<stop stop-color="#2FBBFB"/>
<stop offset="0.526042" stop-color="#D442E0"/>
<stop offset="1" stop-color="#F15D3C"/>
</linearGradient>
</defs>
</svg>
