<svg width="25" height="25" viewBox="0 0 25 25" fill="none" xmlns="http://www.w3.org/2000/svg">
<g id="ri:linkedin-fill">
<path id="Vector" d="M7.23014 5.20742C7.22987 5.75996 7.01011 6.28975 6.61921 6.68026C6.22832 7.07076 5.6983 7.28999 5.14577 7.28971C4.59323 7.28944 4.06344 7.06968 3.67293 6.67878C3.28243 6.28789 3.0632 5.75787 3.06348 5.20534C3.06375 4.6528 3.28351 4.12301 3.67441 3.7325C4.0653 3.342 4.59532 3.12277 5.14785 3.12305C5.70039 3.12332 6.23018 3.34308 6.62069 3.73398C7.01119 4.12487 7.23042 4.65489 7.23014 5.20742ZM7.29264 8.83242H3.12598V21.8741H7.29264V8.83242ZM13.876 8.83242H9.73014V21.8741H13.8343V15.0303C13.8343 11.2178 18.8031 10.8637 18.8031 15.0303V21.8741H22.9176V13.6137C22.9176 7.18659 15.5635 7.42617 13.8343 10.5824L13.876 8.83242Z" fill="url(#paint0_linear_116_44)"/>
</g>
<defs>
<linearGradient id="paint0_linear_116_44" x1="3.06348" y1="3.12305" x2="24.497" y2="5.14668" gradientUnits="userSpaceOnUse">
<stop stop-color="#2FBBFB"/>
<stop offset="0.526042" stop-color="#D442E0"/>
<stop offset="1" stop-color="#F15D3C"/>
</linearGradient>
</defs>
</svg>
