<svg width="25" height="25" viewBox="0 0 25 25" fill="none" xmlns="http://www.w3.org/2000/svg">
<g id="mdi:location">
<path id="Vector" d="M12.4997 11.9798C11.809 11.9798 11.1466 11.7055 10.6583 11.2171C10.1699 10.7287 9.89551 10.0663 9.89551 9.37565C9.89551 8.68498 10.1699 8.0226 10.6583 7.53423C11.1466 7.04585 11.809 6.77148 12.4997 6.77148C13.1903 6.77148 13.8527 7.04585 14.3411 7.53423C14.8295 8.0226 15.1038 8.68498 15.1038 9.37565C15.1038 9.71764 15.0365 10.0563 14.9056 10.3722C14.7747 10.6882 14.5829 10.9753 14.3411 11.2171C14.0993 11.4589 13.8122 11.6507 13.4962 11.7816C13.1803 11.9125 12.8417 11.9798 12.4997 11.9798ZM12.4997 2.08398C10.5658 2.08398 8.71114 2.85221 7.34369 4.21966C5.97623 5.58712 5.20801 7.44178 5.20801 9.37565C5.20801 14.8444 12.4997 22.9173 12.4997 22.9173C12.4997 22.9173 19.7913 14.8444 19.7913 9.37565C19.7913 7.44178 19.0231 5.58712 17.6557 4.21966C16.2882 2.85221 14.4335 2.08398 12.4997 2.08398Z" fill="url(#paint0_linear_116_41)"/>
</g>
<defs>
<linearGradient id="paint0_linear_116_41" x1="5.20801" y1="2.08398" x2="21.0301" y2="3.07157" gradientUnits="userSpaceOnUse">
<stop stop-color="#2FBBFB"/>
<stop offset="0.526042" stop-color="#D442E0"/>
<stop offset="1" stop-color="#F15D3C"/>
</linearGradient>
</defs>
</svg>
