<svg width="25" height="25" viewBox="0 0 40 41" fill="none" xmlns="http://www.w3.org/2000/svg">
<g id="ri:github-fill">
<path id="Vector" d="M20.0016 4.3291C10.7933 4.3291 3.33496 11.7874 3.33496 20.9958C3.33296 24.4944 4.43263 27.9048 6.47798 30.7432C8.52333 33.5816 11.4105 35.7039 14.73 36.8091C15.5633 36.9541 15.8766 36.4541 15.8766 36.0158C15.8766 35.6208 15.855 34.3091 15.855 32.9124C11.6683 33.6841 10.585 31.8924 10.2516 30.9541C10.0633 30.4741 9.25163 28.9958 8.5433 28.5991C7.95996 28.2874 7.12663 27.5158 8.52163 27.4958C9.83496 27.4741 10.7716 28.7041 11.085 29.2041C12.585 31.7241 14.98 31.0158 15.9383 30.5791C16.085 29.4958 16.5216 28.7674 17.0016 28.3508C13.2933 27.9341 9.4183 26.4958 9.4183 20.1208C9.4183 18.3074 10.0633 16.8091 11.1266 15.6408C10.96 15.2241 10.3766 13.5158 11.2933 11.2241C11.2933 11.2241 12.6883 10.7874 15.8766 12.9341C17.2334 12.5575 18.6352 12.368 20.0433 12.3708C21.46 12.3708 22.8766 12.5574 24.21 12.9324C27.3983 10.7658 28.7933 11.2258 28.7933 11.2258C29.71 13.5174 29.1266 15.2258 28.96 15.6424C30.0216 16.8091 30.6683 18.2874 30.6683 20.1208C30.6683 26.5174 26.7733 27.9341 23.0633 28.3508C23.6683 28.8708 24.19 29.8708 24.19 31.4341C24.19 33.6624 24.1683 35.4541 24.1683 36.0174C24.1683 36.4541 24.4816 36.9741 25.315 36.8074C28.623 35.6901 31.4975 33.5637 33.5338 30.7273C35.5701 27.8909 36.6658 24.4874 36.6666 20.9958C36.6666 11.7874 29.2083 4.3291 20 4.3291H20.0016Z" fill="url(#paint0_linear_72_418)"/>
</g>
<defs>
<linearGradient id="paint0_linear_72_418" x1="3.33496" y1="4.3291" x2="39.3379" y2="7.62055" gradientUnits="userSpaceOnUse">
<stop stop-color="#2FBBFB"/>
<stop offset="0.526042" stop-color="#D442E0"/>
<stop offset="1" stop-color="#F15D3C"/>
</linearGradient>
</defs>
</svg>
