<svg width="25" height="25" viewBox="0 0 40 41" fill="none" xmlns="http://www.w3.org/2000/svg">
<g id="ri:linkedin-fill">
<path id="Vector" d="M11.5671 9.32914C11.5666 10.2132 11.215 11.0609 10.5896 11.6857C9.96414 12.3105 9.11611 12.6613 8.23206 12.6608C7.348 12.6604 6.50033 12.3088 5.87552 11.6833C5.25071 11.0579 4.89995 10.2099 4.90039 9.32581C4.90083 8.44175 5.25245 7.59408 5.87788 6.96927C6.50331 6.34446 7.35134 5.9937 8.23539 5.99414C9.11945 5.99458 9.96712 6.3462 10.5919 6.97163C11.2167 7.59706 11.5675 8.44509 11.5671 9.32914ZM11.6671 15.1291H5.00039V35.9958H11.6671V15.1291ZM22.2004 15.1291H15.5671V35.9958H22.1337V25.0458C22.1337 18.9458 30.0837 18.3791 30.0837 25.0458V35.9958H36.6671V22.7791C36.6671 12.4958 24.9004 12.8791 22.1337 17.9291L22.2004 15.1291Z" fill="url(#paint0_linear_72_413)"/>
</g>
<defs>
<linearGradient id="paint0_linear_72_413" x1="4.90039" y1="5.99414" x2="39.1939" y2="9.23195" gradientUnits="userSpaceOnUse">
<stop stop-color="#2FBBFB"/>
<stop offset="0.526042" stop-color="#D442E0"/>
<stop offset="1" stop-color="#F15D3C"/>
</linearGradient>
</defs>
</svg>
