<svg width="25" height="25" viewBox="0 0 40 41" fill="none" xmlns="http://www.w3.org/2000/svg">
<g id="mdi:twitter">
<path id="Vector" d="M37.4331 10.9964C36.1497 11.5798 34.7664 11.9631 33.3331 12.1464C34.7997 11.2631 35.9331 9.86309 36.4664 8.17975C35.0831 9.01309 33.5497 9.59642 31.9331 9.92975C30.6164 8.49642 28.7664 7.66309 26.6664 7.66309C22.7497 7.66309 19.5497 10.8631 19.5497 14.8131C19.5497 15.3798 19.6164 15.9298 19.7331 16.4464C13.7997 16.1464 8.51641 13.2964 4.99974 8.97975C4.38307 10.0298 4.03307 11.2631 4.03307 12.5631C4.03307 15.0464 5.28307 17.2464 7.21641 18.4964C6.03307 18.4964 4.93307 18.1631 3.96641 17.6631V17.7131C3.96641 21.1798 6.43307 24.0798 9.69974 24.7298C8.65095 25.0168 7.5499 25.0567 6.48307 24.8464C6.93575 26.2672 7.8223 27.5104 9.0181 28.4013C10.2139 29.2922 11.6588 29.7859 13.1497 29.8131C10.6225 31.8138 7.48973 32.8953 4.26641 32.8798C3.69974 32.8798 3.13307 32.8464 2.56641 32.7798C5.73307 34.8131 9.49974 35.9964 13.5331 35.9964C26.6664 35.9964 33.8831 25.0964 33.8831 15.6464C33.8831 15.3298 33.8831 15.0298 33.8664 14.7131C35.2664 13.7131 36.4664 12.4464 37.4331 10.9964Z" fill="url(#paint0_linear_72_423)"/>
</g>
<defs>
<linearGradient id="paint0_linear_72_423" x1="2.56641" y1="7.66309" x2="40.0903" y2="11.7806" gradientUnits="userSpaceOnUse">
<stop stop-color="#2FBBFB"/>
<stop offset="0.526042" stop-color="#D442E0"/>
<stop offset="1" stop-color="#F15D3C"/>
</linearGradient>
</defs>
</svg>
