<svg width="25" height="25" viewBox="0 0 40 40" fill="none" xmlns="http://www.w3.org/2000/svg">
<g id="mdi:youtube">
<path id="Vector" d="M16.6673 24.9997L25.3173 19.9997L16.6673 14.9997V24.9997ZM35.934 11.9497C36.1507 12.733 36.3007 13.783 36.4007 15.1163C36.5173 16.4497 36.5673 17.5997 36.5673 18.5997L36.6673 19.9997C36.6673 23.6497 36.4007 26.333 35.934 28.0497C35.5173 29.5497 34.5506 30.5163 33.0506 30.933C32.2673 31.1497 30.834 31.2997 28.634 31.3997C26.4673 31.5163 24.484 31.5663 22.6507 31.5663L20.0007 31.6663C13.0173 31.6663 8.66732 31.3997 6.95065 30.933C5.45065 30.5163 4.48398 29.5497 4.06732 28.0497C3.85065 27.2663 3.70065 26.2163 3.60065 24.883C3.48398 23.5497 3.43398 22.3997 3.43398 21.3997L3.33398 19.9997C3.33398 16.3497 3.60065 13.6663 4.06732 11.9497C4.48398 10.4497 5.45065 9.48301 6.95065 9.06634C7.73398 8.84967 9.16732 8.69967 11.3673 8.59967C13.534 8.48301 15.5173 8.43301 17.3507 8.43301L20.0007 8.33301C26.984 8.33301 31.334 8.59967 33.0506 9.06634C34.5506 9.48301 35.5173 10.4497 35.934 11.9497Z" fill="url(#paint0_linear_72_428)"/>
</g>
<defs>
<linearGradient id="paint0_linear_72_428" x1="3.33398" y1="8.33301" x2="39.0599" y2="12.8839" gradientUnits="userSpaceOnUse">
<stop stop-color="#2FBBFB"/>
<stop offset="0.526042" stop-color="#D442E0"/>
<stop offset="1" stop-color="#F15D3C"/>
</linearGradient>
</defs>
</svg>
