<svg width="110" height="110" viewBox="0 0 110 110" fill="none" xmlns="http://www.w3.org/2000/svg">
<g id="unity-svgrepo-com 1">
<rect width="110" height="110" rx="20" fill="#1D1F2C"/>
<path id="Vector" d="M69.8923 55.0084L87.8387 24.0337L96.5129 55.0255L87.8387 86.0045L69.8923 55.0255V55.0084ZM61.1455 60.0377L79.0962 91.0338L47.8352 83.0177L25.2526 60.0377H61.1455ZM79.092 18.983L61.1455 49.9748H25.2526L47.8352 26.9948L79.0877 18.983H79.092ZM104.73 44.4627L93.7653 3.72852L52.8987 14.6459L46.8481 25.2814L34.5719 25.1916L4.66113 55.0084L34.5719 84.8209L46.8396 84.7269L52.8987 95.3623L93.7653 106.275L104.704 65.5498L98.4955 55.0041L104.73 44.4627Z" fill="white"/>
</g>
</svg>
