<svg width="110" height="110" viewBox="0 0 110 110" fill="none" xmlns="http://www.w3.org/2000/svg">
<g id="unreal-engine-svgrepo-com (1) 1">
<rect width="110" height="110" rx="20" fill="#1D1F2C"/>
<path id="Vector" d="M54.5602 2.79688C25.959 2.79688 2.79688 26.1613 2.79688 55.0007C2.79688 83.84 25.959 107.204 54.5602 107.204C83.1418 107.204 106.324 83.84 106.324 55.0007C106.324 26.1613 83.145 2.79688 54.5439 2.79688H54.5602ZM54.5602 5.09058C67.7645 5.09058 80.202 10.2914 89.5498 19.7044C98.8779 29.0847 104.079 41.7801 104.046 55.0007C104.046 68.3224 98.8975 80.8644 89.5498 90.2969C80.3228 99.661 67.7123 104.927 54.5602 104.911C41.4081 104.927 28.7976 99.661 19.5706 90.2969C10.2424 80.9166 5.02532 68.2213 5.05795 55.0007C5.05795 41.6789 10.2229 29.1369 19.5543 19.7044C28.7813 10.324 41.4081 5.05469 54.5602 5.09058ZM51.9598 23.4598C43.5321 25.7209 35.7309 30.0538 25.3326 41.9823C14.9343 53.9109 16.9049 63.7676 16.9049 63.7676C16.9049 63.7676 19.7762 56.9877 26.6768 49.8488C29.9559 46.4686 32.3866 45.3299 34.0702 45.3299C35.5645 45.2451 36.824 46.4523 36.824 47.9466V72.1627C36.824 74.5575 35.2774 75.0861 33.8516 75.0502C32.6444 75.0339 31.522 74.6097 31.522 74.6097C38.6087 84.9069 55.5684 86.3523 55.5684 86.3523L63.0107 78.3977L63.1803 78.5511L69.9962 84.362C82.4696 76.9524 88.4861 63.2228 88.4861 63.2228C82.9134 69.1022 79.3766 70.4791 77.2688 70.4791C75.3993 70.4628 74.6684 69.373 74.6684 69.373C74.5673 68.864 74.3976 61.487 74.3291 54.1132C74.2606 46.4817 74.3291 38.8371 74.7043 38.8175C76.861 34.7717 83.7291 26.6149 83.7291 26.6149C70.9 29.1467 63.9145 37.5581 63.9145 37.5581C61.8426 35.9267 57.6272 36.1975 57.6272 36.1975C59.5979 37.284 61.5686 40.4456 61.5686 43.0623V68.8249C61.5686 68.8249 57.2683 72.6129 53.9566 72.6129C51.9859 72.6129 50.7787 71.5427 50.1163 70.6585C49.8618 70.3192 49.64 69.944 49.4703 69.5361V37.7245C49.0103 38.0638 48.4491 38.2498 47.8912 38.2693C47.1766 38.2693 46.4458 37.9137 45.9531 36.8762C45.5779 36.0931 45.3397 34.9218 45.3397 33.2056C45.3397 27.3424 51.9663 23.45 51.9663 23.45L51.9598 23.4598Z" fill="white"/>
</g>
</svg>
